<?xml version="1.0" encoding="utf-8"?>
<!-- Generator: Adobe Illustrator 23.0.6, SVG Export Plug-In . SVG Version: 6.00 Build 0)  -->
<svg version="1.1" id="Layer_1" xmlns="http://www.w3.org/2000/svg" xmlns:xlink="http://www.w3.org/1999/xlink" x="0px" y="0px"
	 viewBox="0 0 900 900" style="enable-background:new 0 0 900 900;" xml:space="preserve">
<path d="M520.65,150.2c0,0-135.68,65.18-223.47,49.88c-5.99,55.2,65.84,105.08,103.75,105.08c4.66,7.98,31.92,241.76,13.63,278.34
	c-5.83,4.54-27.38,16.07-65.07,14.3c1.33-31.92,3.99-133.46,3.99-133.46s22.17-76.26-88.23-92.67c0,0-29.93-0.67,18.62,60.52
	c0.67,52.54,6.65,165.79,6.65,165.79s-23.28,31.74-146.98,33.07c0,39.9,43.23,73.16,43.23,73.16s68.68-18.62,161.35-33.37
	c120.41-19.17,281.32-31.8,384.68,11.42c31.92-25.27,62.52-17.96-18.62-102.42c-75.15-1.33-228.79,5.32-228.79,5.32
	s21.28-67.84,12.64-111.07c98.43-22.61,129.03-27.93,132.35-46.89c3.33-18.95-27.93-47.55-50.55-55.53
	c-23.28-3.99-75.15,5.32-75.15,5.32s-5.32-47.22-23.28-82.47c51.88-8.65,152.3-57.86,141-87.13S580.51,152.86,520.65,150.2z"/>
</svg>
